Coordinates
version=1
nRows=9
nColumns=24
inDegrees=yes

Units are S.I. units (second, meters, Newtons, ...)
Angles are in degrees.

endheader
time	pelvis_tilt	pelvis_list	pelvis_rotation	pelvis_tx	pelvis_ty	pelvis_tz	hip_flexion_r	hip_adduction_r	hip_rotation_r	knee_angle_r	ankle_angle_r	subtalar_angle_r	mtp_angle_r	hip_flexion_l	hip_adduction_l	hip_rotation_l	knee_angle_l	ankle_angle_l	subtalar_angle_l	mtp_angle_l	lumbar_extension	lumbar_bending	lumbar_rotation
      0.62500000	      1.84872980	      8.06806195	     -1.80817959	     -0.81300050	      1.04785318	      0.30592025	     23.60487551	     -3.88035984	    -10.57966984	      0.62988463	      7.83335352	      0.16962743	     -0.05576103	    -21.84388959	     13.00348054	     -3.92845706	     -3.36133671	      5.01602068	      1.73565267	      0.03568780	      2.81201159	     -6.24480668	     -1.52339027
      0.62916667	      1.86186484	      7.99526885	     -1.70152341	     -0.80684116	      1.04776907	      0.30569651	     23.42971541	     -3.83887732	    -10.29049727	      0.28004114	      8.02244408	      0.12865599	     -0.07104052	    -22.01808403	     12.87071203	     -3.77313008	     -3.71254332	      4.77765858	      1.60366845	      0.01494361	      2.83403430	     -6.07200103	     -1.61867734
      0.63333333	      1.87302965	      7.96240989	     -1.60128457	     -0.80078095	      1.04768119	      0.30551637	     23.29479977	     -3.83594131	    -10.11864626	     -0.13852618	      8.03852243	      0.09885999	     -0.07500368	    -22.14740456	     12.77728782	     -3.75362256	     -4.13694462	      4.65468070	      1.57170621	      0.01086606	      2.90035207	     -5.99874926	     -1.64270432
      0.63750000	      1.92494291	      7.83988522	     -1.53855613	     -0.79446190	      1.04766993	      0.30545436	     23.02608729	     -3.71698671	     -9.62167437	     -0.44345704	      8.27728759	     -0.20457870	     -0.09483630	    -22.35103865	     12.59293057	     -3.72819011	     -4.47662073	      4.06176333	      1.53502002	      0.00038600	      2.86072737	     -5.79500278	     -1.76925253
      0.64166667	      1.94065323	      7.80695874	     -1.43707116	     -0.78834179	      1.04764344	      0.30530391	     22.86260456	     -3.71231551	     -9.43979412	     -0.84681396	      8.24200655	     -0.26014771	     -0.09904276	    -22.44990256	     12.49250797	     -3.73928101	     -4.96717902	      3.95684196	      1.50760555	      0.00145546	      2.92490207	     -5.72555061	     -1.78723975
      0.64583333	      2.09009521	      7.66790108	     -1.45984430	     -0.78202265	      1.04776778	      0.30544606	     22.47431587	     -3.54014543	     -8.80679747	     -1.10569936	      8.19883388	     -0.99693933	     -0.13691657	    -22.71342496	     12.30625064	     -3.91556438	     -5.35114184	      3.20334908	      1.55497366	      0.02762473	      2.82385445	     -5.50787019	     -1.94600307
      0.65000000	      2.07459999	      7.61871187	     -1.30810380	     -0.77579107	      1.04777788	      0.30530885	     22.28802157	     -3.52736515	     -8.59656787	     -1.42825662	      8.13262978	     -1.02395542	     -0.14062922	    -22.75694665	     12.15691809	     -3.92584624	     -5.89368792	      3.11977167	      1.54176103	      0.03465915	      2.86952644	     -5.44415424	     -1.95291821
      0.65416667	      2.24612807	      7.43365236	     -1.30841749	     -0.76940577	      1.04800979	      0.30565585	     21.81141092	     -3.29022119	     -7.86412797	     -1.55180718	      7.69496097	     -2.20400587	     -0.20612147	    -22.99513931	     11.88173179	     -4.34429830	     -6.37973469	      2.54615736	      1.78240962	      0.18318573	      2.67128669	     -5.26127536	     -2.09122137
      0.65833333	      2.23895827	      7.39161772	     -1.18017103	     -0.76317057	      1.04806935	      0.30554149	     21.60741366	     -3.28089217	     -7.66968017	     -1.84543768	      7.62405254	     -2.18125672	     -0.20835768	    -23.01837638	     11.74415542	     -4.31287864	     -6.95853067	      2.40438509	      1.81105962	      0.19443315	      2.76325379	     -5.15594100	     -2.09591037
